<svg xmlns="http://www.w3.org/2000/svg" width="41" height="41" viewBox="0 0 41 41">
    <g fill="none" fill-rule="nonzero">
        <path fill="#343A5E" d="M30.785 15.765c.221.536.402 1.073.563 1.63l.221.805.805.165c1.228.247 2.133 1.383 2.133 2.662 0 1.3-.905 2.414-2.133 2.662l-.805.165-.22.805a13.79 13.79 0 0 1-1.248 3.096l-.383.701.403.681c.261.434.402.908.402 1.403 0 1.507-1.187 2.725-2.656 2.725-.483 0-.945-.145-1.368-.413l-.664-.413-.684.392c-.946.557-1.952.99-3.018 1.28l-.785.227-.16.825c-.242 1.259-1.349 2.188-2.596 2.188-1.268 0-2.355-.93-2.596-2.188l-.161-.825-.785-.227a13.071 13.071 0 0 1-3.018-1.28l-.684-.392-.664.413a2.533 2.533 0 0 1-1.368.413c-1.469 0-2.656-1.218-2.656-2.725 0-.495.14-.97.402-1.403l.403-.68-.383-.702a12.906 12.906 0 0 1-1.247-3.096l-.221-.805-.805-.165c-1.228-.248-2.133-1.383-2.133-2.662 0-1.3.905-2.415 2.133-2.662l.805-.165.221-.805a13.79 13.79 0 0 1 1.247-3.096l.161-.31c.04-.144.121-.309.182-.453l-.403-.62a2.696 2.696 0 0 1-.402-1.403c.02-1.506 1.207-2.724 2.676-2.724.483 0 .945.145 1.368.413l.664.413.684-.392c.946-.557 1.952-.99 3.018-1.28l.785-.227.16-.825c.242-1.259 1.349-2.188 2.596-2.188 1.268 0 2.355.929 2.596 2.188l.161.825.785.227c.905.248 1.77.599 2.595 1.053l3.32-2.91h-.16c-.705 0-1.41.145-2.053.433a18.147 18.147 0 0 0-2.254-.97C22.797 3.446 20.825 2 18.591 2c-2.233 0-4.225 1.445-4.97 3.55-.784.268-1.528.577-2.253.97a5.024 5.024 0 0 0-2.052-.434c-2.918 0-5.312 2.435-5.312 5.448 0 .722.14 1.424.423 2.105a19.137 19.137 0 0 0-.946 2.311C1.408 16.714 0 18.757 0 21.048c0 2.29 1.408 4.333 3.46 5.097.262.805.564 1.568.946 2.311a5.382 5.382 0 0 0-.422 2.105c0 2.992 2.374 5.448 5.312 5.448.704 0 1.408-.144 2.052-.433.724.371 1.489.701 2.254.97.764 2.105 2.736 3.55 4.97 3.55 2.233 0 4.225-1.445 4.97-3.55.784-.269 1.528-.578 2.253-.97a5.024 5.024 0 0 0 2.052.433c2.918 0 5.312-2.435 5.312-5.448 0-.722-.14-1.424-.423-2.105.363-.743.685-1.527.946-2.311 2.052-.784 3.46-2.807 3.46-5.097 0-2.291-1.408-4.334-3.46-5.098a15.403 15.403 0 0 0-.946-2.31c.101-.27.202-.537.262-.806l-2.213 2.93z"/>
        <path fill="#343A5E" d="M13 12.429l4.705 1.428 2.914-2.452A8.847 8.847 0 0 0 17.922 11c-1.811 0-3.505.54-4.922 1.429zM19.957 30.445a2.89 2.89 0 0 1-2.288-1.085L10.206 20A8.843 8.843 0 0 0 10 21.966c0 5.202 4.267 9.463 9.524 9.463 5.256 0 9.524-4.24 9.524-9.463 0-.43-.042-.84-.083-1.27l-6.7 8.623a2.967 2.967 0 0 1-2.308 1.126z"/>
        <path fill="#1FDE91" d="M40.282.174c-.224-.228-.572-.228-.817-.02l-19.737 17.16L10.8 14.53c-.266-.083-.532.021-.695.25a.667.667 0 0 0 .02.747l9.256 11.864a.618.618 0 0 0 .49.228.606.606 0 0 0 .49-.25L40.345 1.006c.204-.25.163-.602-.062-.83z"/>
    </g>
</svg>
