<?xml version="1.0" encoding="utf-8"?>
<!-- Generator: Adobe Illustrator 19.0.0, SVG Export Plug-In . SVG Version: 6.00 Build 0)  -->
<svg version="1.1" id="Calque_1" xmlns="http://www.w3.org/2000/svg" xmlns:xlink="http://www.w3.org/1999/xlink" x="0px" y="0px"
	 viewBox="300 265.9 338 311" style="enable-background:new 300 265.9 338 311;" xml:space="preserve">
<style type="text/css">
	.st0{fill:#21409A;}
	.st1{fill:#FFF200;}
	.st2{fill:#00A14B;}
</style>
<path id="XMLID_4_" class="st0" d="M626,576.9H394c-6.6,0-12-5.4-12-12v-250c0-6.6,5.4-12,12-12h232c6.6,0,12,5.4,12,12v250
	C638,571.5,632.6,576.9,626,576.9z"/>
<path id="XMLID_3_" class="st1" d="M584,557.9H352c-6.6,0-12-5.4-12-12v-250c0-6.6,5.4-12,12-12h232c6.6,0,12,5.4,12,12v250
	C596,552.5,590.6,557.9,584,557.9z"/>
<path id="XMLID_1_" class="st2" d="M544,539.9H312c-6.6,0-12-5.4-12-12v-250c0-6.6,5.4-12,12-12h232c6.6,0,12,5.4,12,12v250
	C556,534.5,550.6,539.9,544,539.9z"/>
</svg>
