<?xml version="1.0" encoding="UTF-8"?>
<svg width="116px" height="95px" viewBox="0 0 116 95" version="1.1" xmlns="http://www.w3.org/2000/svg" xmlns:xlink="http://www.w3.org/1999/xlink">
    <!-- Generator: sketchtool 49.2 (51160) - http://www.bohemiancoding.com/sketch -->
    <title>20D4D4D7-D5F7-401B-8447-8E22DAD1E61A</title>
    <desc>Created with sketchtool.</desc>
    <defs></defs>
    <g id="Symbols" stroke="none" stroke-width="1" fill="none" fill-rule="evenodd">
        <g id="Stars" fill-rule="nonzero">
            <g id="group-21">
                <path d="M111.262,60.034 L111.262,56 L109.029,56 L109.029,60.034 L105,60.034 L105,62.27 L109.03,62.27 L109.03,66.304 L111.262,66.304 L111.262,62.27 L115.29,62.27 L115.29,60.034 L111.262,60.034 M62.262,4.034 L62.262,0 L60.029,0 L60.029,4.034 L56,4.034 L56,6.27 L60.03,6.27 L60.03,10.304 L62.262,10.304 L62.262,6.27 L66.29,6.27 L66.29,4.034 L62.262,4.034 M81.22,26.074 L81.22,24 L80.07,24 L80.07,26.074 L78,26.074 L78,27.224 L80.071,27.224 L80.071,29.297 L81.219,29.297 L81.219,27.223 L83.29,27.223 L83.29,26.073 L81.22,26.073" id="Shape" fill="#F2BA49"></path>
                <path d="M20.995,24.151 L20.995,19 L18.145,19 L18.145,24.151 L13,24.151 L13,27.005 L18.145,27.005 L18.145,32.157 L20.995,32.157 L20.995,27.005 L26.14,27.005 L26.14,24.15 L20.995,24.15 M7.953,68.191 L7.953,65 L6.187,65 L6.187,68.191 L3,68.191 L3,69.959 L6.187,69.959 L6.187,73.151 L7.953,73.151 L7.953,69.959 L11.14,69.959 L11.14,68.19 L7.953,68.19" id="Shape" fill="#FFD34D"></path>
                <path d="M9.56,46.787 C9.56106131,48.0557958 9.05805174,49.2730466 8.16162776,50.1709709 C7.26520377,51.0688952 6.04879582,51.5739396 4.78,51.575 C3.51120418,51.5739396 2.29479623,51.0688952 1.39837224,50.1709709 C0.501948256,49.2730466 -0.00106130958,48.0557958 -8.4021772e-16,46.787 C-0.00106126052,45.5182963 0.501980189,44.3011483 1.39843288,43.4033828 C2.29488558,42.5056174 3.51129606,42.0007953 4.78,42 C7.42,42 9.56,44.143 9.56,46.787 M37.563,9.285 C37.563553,10.5456381 36.5426372,11.5683443 35.282,11.57 C34.0209722,11.5688959 32.9994474,10.5460282 33,9.285 C32.9994694,8.67933753 33.2396275,8.09828521 33.6676143,7.66973578 C34.095601,7.24118634 34.6763374,7.00026506 35.282,7 C35.8874893,7.0005302 36.4679687,7.2415685 36.8957393,7.67008918 C37.3235098,8.09860985 37.5635307,8.67951068 37.563,9.285 M100.56,80.782 C100.56,81.767 99.763,82.565 98.78,82.565 C97.797,82.565 97,81.767 97,80.782 C96.9782035,80.1318381 97.3126217,79.5215147 97.8723263,79.1899782 C98.4320308,78.8584418 99.1279692,78.8584418 99.6876737,79.1899782 C100.247378,79.5215147 100.581797,80.1318381 100.56,80.782 M20.56,70.782 C20.56,71.767 19.763,72.565 18.78,72.565 C17.797,72.565 17,71.767 17,70.782 C16.9782035,70.1318381 17.3126217,69.5215147 17.8723263,69.1899782 C18.4320308,68.8584418 19.1279692,68.8584418 19.6876737,69.1899782 C20.2473783,69.5215147 20.5817965,70.1318381 20.56,70.782 M38.56,30.782 C38.56,31.767 37.763,32.565 36.78,32.565 C35.797,32.565 35,31.767 35,30.782 C34.9782035,30.1318381 35.3126217,29.5215147 35.8723263,29.1899782 C36.4320308,28.8584418 37.1279692,28.8584418 37.6876737,29.1899782 C38.2473783,29.5215147 38.5817965,30.1318381 38.56,30.782" id="Shape" fill="#F2BA49"></path>
                <path d="M38.56,30.782 C38.56,31.767 37.763,32.565 36.78,32.565 C35.797,32.565 35,31.767 35,30.782 C34.9782035,30.1318381 35.3126217,29.5215147 35.8723263,29.1899782 C36.4320308,28.8584418 37.1279692,28.8584418 37.6876737,29.1899782 C38.2473783,29.5215147 38.5817965,30.1318381 38.56,30.782" id="Shape" fill="#F2BA49"></path>
                <path d="M93.223,13.616 C93.2235306,14.3091839 92.9486047,14.974173 92.4587309,15.4646094 C91.9688572,15.9550459 91.3041841,16.2307349 90.611,16.231 C89.9179892,16.2304698 89.2535731,15.9546637 88.7639155,15.464256 C88.274258,14.9738484 87.9994694,14.3090108 88,13.616 C87.9992039,12.9228161 88.2738754,12.2577215 88.7635617,11.7670975 C89.253248,11.2764735 89.9178158,11.0005301 90.611,11 C91.3043575,11.0002649 91.9691823,11.2760912 92.4590849,11.766744 C92.9489874,12.2573968 93.2237961,12.9226429 93.223,13.616" id="Shape" fill="#FFD34D"></path>
                <path d="M23.968,84.489 C23.9685306,85.4135447 23.6017654,86.3004333 22.9483886,86.9545602 C22.2950118,87.6086871 21.4085447,87.9764697 20.484,87.977 C19.5594553,87.9764697 18.6729882,87.6086871 18.0196114,86.9545602 C17.3662346,86.3004333 16.9994694,85.4135447 17,84.489 C16.999204,83.5642821 17.3658521,82.6771366 18.0192576,82.0227933 C18.6726631,81.3684501 19.5592819,81.0005302 20.484,81 C21.4087181,81.0005302 22.2953369,81.3684501 22.9487424,82.0227933 C23.6021479,82.6771366 23.968796,83.5642821 23.968,84.489" id="Shape" fill="#F2BA49"></path>
                <path d="M108.449,33.23 C108.449796,34.3512433 108.005078,35.4268651 107.212708,36.2201728 C106.420338,37.0134805 105.345244,37.4594698 104.224,37.46 C103.10293,37.4592046 102.028092,37.0130983 101.235938,36.2198194 C100.443784,35.4265404 99.9992041,34.3510702 100,33.23 C99.9992041,32.1089298 100.443784,31.0334596 101.235938,30.2401806 C102.028092,29.4469017 103.10293,29.0007954 104.224,29 C105.345244,29.0005302 106.420338,29.4465195 107.212708,30.2398272 C108.005078,31.0331349 108.449796,32.1087567 108.449,33.23" id="Shape" fill="#FFD34D"></path>
                <g id="Group" transform="translate(16.000000, 16.000000)">
                    <path d="M83.043,30.846 C83.105,28.574 81.401,26.612 79.095,26.302 L56.609,23.142 L44.74,3.064 C43.8949698,1.64131069 42.3503918,0.782702519 40.696,0.816 C39.033,0.846 37.526,1.761 36.766,3.203 L26.526,23.042 L4.16,27.178 C2.492,27.455 1.126,28.618 0.618,30.196 C0.112491205,31.7828085 0.549062195,33.5190207 1.745,34.678 L18.248,51.346 L15.162,73.31 C14.931,74.938 15.641,76.563 17.007,77.533 C18.375954,78.5027675 20.1621483,78.656908 21.677,77.936 L41.927,68.463 L63.593,77.457 C65.094,78.077 66.815,77.867 68.104,76.907 C69.3877572,75.9590687 70.0519011,74.3861367 69.836,72.805 L67.001,50.15 L81.925,33.699 C82.6309767,32.9148367 83.0282535,31.9010345 83.043,30.846 Z" id="Shape" fill="#FFCE31"></path>
                    <path d="M56.568,23.263 L42.608,41.42 L41.081,1.04 C42.631,1.281 43.657,1.76 44.155,2.475 C44.654,3.191 48.791,10.12 56.568,23.265 L56.568,23.263 Z M41.858,68.455 L42.233,41.547 L68.288,76.736 C66.572,77.688 65.311,78.036 64.504,77.781 C63.697,77.526 56.148,74.417 41.858,68.455 Z M26.182,23.17 L42.186,41.15 L7.51,32.127 L1.07,29.544 C1.469,27.894 4.448,26.45 13.227,25.572 C15.898,25.304 20.217,24.504 26.182,23.17 Z M82.714,30.077 L43.077,41.184 L67.194,50.054 C74.679,41.507 79.289,36.443 81.027,34.862 C82.765,33.282 83.327,31.687 82.714,30.077 Z" id="Shape" fill="#000000" opacity="0.03"></path>
                    <path d="M17.333,77.767 L42.29,41.556 L18.26,51.565 C16.933,61.857 15.942,68.507 15.286,71.514 C14.63,74.52 15.313,76.604 17.334,77.767 L17.333,77.767 Z" id="Shape" fill="#000000" opacity="0.03"></path>
                    <path d="M77.013,31.512 L63.617,46.216 C62.5440887,47.4130491 62.0524979,49.0216922 62.273,50.614 L64.931,72.338 L44.288,63.791 C42.7629499,63.1691033 41.0468867,63.215905 39.558,63.92 L21.227,72.46 L24.06,52.302 C24.3250335,50.580774 23.7645323,48.8351815 22.547,47.59 L7.14,32.103 L27.694,28.374 C29.444,28.056 30.938,26.962 31.736,25.414 L41.19,7.156 L52.252,25.826 C53.1411032,27.3319596 54.6622505,28.3563458 56.392,28.614 L77.012,31.512 L77.013,31.512 Z" id="Shape" fill="#FFD34D"></path>
                    <path d="M76.897,31.551 L42.554,41.417 L53.53,27.622 L76.897,31.551 Z M7.406,32.157 L42.372,41.234 L21.982,47.141 L7.406,32.157 Z M42.228,41.484 L40.184,63.607 L21.317,72.307 L42.228,41.484 Z M61.972,49.592 L42.262,41.488 L65.095,72.413 L61.972,49.592 Z" id="Shape" fill="#FFFFFF" opacity="0.312"></path>
                    <polygon id="Shape" fill="#FFFFFF" opacity="0.312" points="42.651 41.515 30.376 27.656 41.326 7.481"></polygon>
                </g>
            </g>
        </g>
    </g>
</svg>